<svg version="1.1" id="Layer_1" xmlns="http://www.w3.org/2000/svg" xmlns:xlink="http://www.w3.org/1999/xlink" x="0px" y="0px"
	 width="100%" viewBox="0 0 992 416" enable-background="new 0 0 992 416" xml:space="preserve">
<path fill="#000000" opacity="1.000000" stroke="none" 
	d="
M0.999999,191.468658 
	C2.648148,186.310822 3.998697,181.490829 5.992942,176.953781 
	C18.554869,148.374435 46.980915,134.752731 78.656967,141.977554 
	C103.847862,147.723221 121.800713,168.023499 125.211349,194.629547 
	C127.217972,210.283005 127.385551,225.884567 122.870712,241.170181 
	C112.800316,275.264923 85.377899,290.369080 51.811497,285.599030 
	C25.170568,281.813110 9.412026,265.844025 2.437575,240.412384 
	C2.175214,239.455719 1.724161,238.550797 1.180520,237.310883 
	C1.000000,221.979111 1.000000,206.958206 0.999999,191.468658 
M52.967167,146.344864 
	C28.898554,150.202560 14.564386,164.596695 8.100168,187.628616 
	C4.397448,200.821365 3.882721,214.240082 5.492598,227.706116 
	C7.078488,240.971497 11.213599,253.396301 20.255802,263.649475 
	C32.492226,277.524658 48.426804,281.625946 66.229179,280.982391 
	C89.563789,280.138824 107.467110,267.883972 115.394745,245.903183 
	C122.975388,224.884491 123.098213,203.393967 116.100670,182.188919 
	C110.671432,165.736435 99.630798,154.201797 82.964287,148.646454 
	C73.495163,145.490143 63.707870,145.094223 52.967167,146.344864 
z"/>
<path fill="#000000" opacity="1.000000" stroke="none" 
	d="
M993.000000,191.562500 
	C982.066833,186.890045 971.053040,187.029266 960.398682,192.408661 
	C952.990417,196.149170 950.112061,203.055206 950.334167,211.092712 
	C950.542908,218.648560 955.147522,223.121490 961.776550,225.924927 
	C967.159058,228.201233 972.764893,229.677765 978.477905,230.783615 
	C983.211365,231.699860 987.922729,232.671112 992.686340,234.803223 
	C993.000000,236.714355 993.000000,238.428711 993.000000,240.571533 
	C986.261169,237.981049 978.967529,236.993790 971.880737,235.255814 
	C967.513489,234.184784 963.218506,232.913925 959.124817,231.040421 
	C951.263062,227.442535 945.431763,222.162491 944.743713,212.916656 
	C943.977173,202.614670 947.645569,194.273102 956.444153,188.652557 
	C966.133728,182.462921 976.845825,182.405884 987.747437,184.137207 
	C989.223511,184.371628 990.689636,184.668869 992.580200,184.968506 
	C993.000000,187.041672 993.000000,189.083328 993.000000,191.562500 
z"/>
<path fill="#000000" opacity="1.000000" stroke="none" 
	d="
M993.000000,284.571533 
	C983.593750,286.328156 974.191467,287.311615 964.746033,285.261841 
	C954.662903,283.073669 946.932556,277.394318 940.734680,269.349854 
	C939.415710,267.637787 939.060791,266.163269 941.020752,264.676819 
	C942.878845,263.267670 944.133667,264.215607 945.190125,265.688965 
	C957.320740,282.606812 974.211792,282.897949 992.626587,279.100464 
	C993.000000,280.714355 993.000000,282.428711 993.000000,284.571533 
z"/>
<path fill="#000000" opacity="1.000000" stroke="none" 
	d="
M232.822632,195.197739 
	C252.353531,216.474808 250.321793,256.103943 232.773727,274.081512 
	C212.870605,294.471832 178.470154,289.439728 165.459122,264.166748 
	C164.928467,263.135956 164.431946,262.087616 163.305664,259.801361 
	C163.305664,267.396057 163.314697,273.726044 163.300766,280.055969 
	C163.295898,282.267395 163.448883,284.581512 160.106262,284.441772 
	C156.532593,284.292328 157.578247,281.864288 157.582413,279.760529 
	C157.652115,244.452194 157.693390,209.143768 157.705505,173.835358 
	C157.708939,163.843536 157.666702,153.850525 157.493393,143.860703 
	C157.450531,141.390717 157.487946,139.515320 160.699402,139.643082 
	C163.924210,139.771362 163.632660,141.732758 163.620728,144.133102 
	C163.515030,165.380569 163.559341,186.628784 163.559341,208.020920 
	C178.130402,176.115143 216.809448,177.934250 232.822632,195.197739 
M213.564606,189.807678 
	C194.103714,185.515671 178.489960,190.873505 170.453690,206.137558 
	C160.801773,224.470322 160.518692,243.725357 169.905121,262.215271 
	C177.442917,277.063660 190.776978,282.444519 207.079666,280.839874 
	C221.643890,279.406372 231.178848,271.349030 236.623383,258.105743 
	C242.361832,244.147598 242.395294,229.741165 238.181839,215.585114 
	C234.568069,203.443878 227.151962,194.015640 213.564606,189.807678 
z"/>
<path fill="#000000" opacity="1.000000" stroke="none" 
	d="
M312.707031,248.012115 
	C309.520752,229.338028 311.255371,211.972504 323.130157,196.946457 
	C333.373627,183.984680 354.588013,178.969849 372.142151,184.777283 
	C387.214203,189.763550 397.436188,204.094574 398.300354,221.456955 
	C398.374817,222.953491 398.344452,224.459488 398.498138,225.947128 
	C399.348877,234.181976 399.363220,234.186401 390.880737,234.185669 
	C368.235168,234.183746 345.588470,234.294998 322.945007,234.074341 
	C318.210876,234.028214 316.704071,235.619171 317.230560,240.139633 
	C319.219635,257.217743 325.592987,272.023499 342.677399,278.190247 
	C359.705322,284.336609 376.166199,282.053497 389.795013,268.630737 
	C391.164215,267.282288 392.422150,265.108398 394.684784,267.264648 
	C397.229584,269.689697 394.741302,271.090546 393.343872,272.536499 
	C372.959045,293.628601 326.774292,293.941620 314.017975,253.261154 
	C313.520996,251.676224 313.180328,250.042282 312.707031,248.012115 
M389.725769,208.829163 
	C387.212738,202.482407 383.537567,196.993423 377.580963,193.421417 
	C353.445740,178.948242 323.159698,192.832657 318.388550,220.506897 
	C316.958344,228.802505 316.958344,228.802414 325.225708,228.793289 
	C327.891235,228.790359 330.556763,228.786240 333.222290,228.785767 
	C351.381195,228.782471 369.540283,228.738174 387.698853,228.815338 
	C391.022644,228.829453 393.109467,228.294968 392.853119,224.193253 
	C392.538483,219.158936 391.607544,214.307892 389.725769,208.829163 
z"/>
<path fill="#000000" opacity="1.000000" stroke="none" 
	d="
M636.451172,260.415924 
	C628.299011,240.891693 628.992126,221.971146 638.867554,203.762619 
	C653.605042,176.589310 697.601074,175.140686 713.167908,204.809769 
	C724.303955,226.034058 724.157349,247.799149 711.180542,268.438599 
	C701.684875,283.541290 686.751160,287.993103 669.936829,286.105835 
	C654.098267,284.328033 643.073181,275.319153 636.451172,260.415924 
M666.503418,280.120911 
	C684.852295,283.694489 700.424622,277.988953 708.133179,263.024750 
	C718.080566,243.714554 717.947571,223.804245 706.831177,204.843552 
	C699.669678,192.628510 687.775635,187.942566 674.105774,188.483078 
	C659.693848,189.052963 648.384827,195.651031 642.365601,209.085938 
	C634.775574,226.026917 634.712891,243.381790 642.466187,260.319702 
	C647.030457,270.291016 654.649231,277.291779 666.503418,280.120911 
z"/>
<path fill="#000000" opacity="1.000000" stroke="none" 
	d="
M820.543213,220.051300 
	C820.433105,204.049942 813.510864,193.537567 800.965698,189.953217 
	C783.510620,184.966019 764.556274,192.441284 757.682495,207.023071 
	C755.365356,211.938614 754.367188,217.229523 754.376770,222.546906 
	C754.412109,242.035126 753.728516,261.531525 754.767029,281.010101 
	C754.888184,283.282349 754.342407,284.623169 751.943542,284.650208 
	C749.691650,284.675568 748.315918,284.109772 748.329895,281.215851 
	C748.478394,250.395233 748.501648,219.573883 748.473877,188.752823 
	C748.471924,186.597076 748.708862,185.072250 751.218140,185.046494 
	C753.653625,185.021484 754.287476,186.576126 754.281189,188.672974 
	C754.267151,193.336166 754.276794,197.999435 754.276794,203.019699 
	C756.752747,199.966110 758.825684,196.908432 761.386414,194.336502 
	C773.724548,181.944504 797.435669,179.315414 811.872009,188.860138 
	C821.727600,195.376312 825.850647,205.299622 826.092224,216.642868 
	C826.478882,234.798599 826.227844,252.967529 826.298401,271.130676 
	C826.309998,274.122711 826.501404,277.121399 826.769043,280.102722 
	C826.985962,282.519531 826.875305,284.515106 823.729370,284.597076 
	C820.774414,284.674011 820.278381,283.089691 820.301453,280.440308 
	C820.476013,260.449249 820.501709,240.456894 820.543213,220.051300 
z"/>
<path fill="#000000" opacity="1.000000" stroke="none" 
	d="
M491.901062,198.070160 
	C478.320709,185.334076 449.666992,186.233688 437.052612,199.780685 
	C430.942352,206.342697 427.493469,214.085526 425.823029,222.764267 
	C423.081940,237.005508 424.598419,250.699997 432.025635,263.264465 
	C446.415466,287.607544 481.063690,284.296356 495.031830,270.485809 
	C496.669678,268.866425 498.358459,264.312134 501.512573,267.889130 
	C504.383392,271.144928 500.059082,272.776093 498.300537,274.395721 
	C481.186096,290.158447 452.264008,290.896820 435.157013,275.389984 
	C421.410278,262.929199 417.603241,246.375000 419.144897,228.482971 
	C419.980377,218.787262 422.652618,209.612534 428.626556,201.524857 
	C444.678314,179.793686 479.477753,177.158936 498.319122,196.465729 
	C499.792450,197.975449 502.563538,199.412125 499.766937,202.113556 
	C496.895142,204.887573 495.842285,201.887360 494.320312,200.380722 
	C493.611145,199.678696 492.893829,198.984863 491.901062,198.070160 
z"/>
<path fill="#000000" opacity="1.000000" stroke="none" 
	d="
M511.606628,185.318878 
	C517.948669,184.986572 523.933472,184.831787 529.914429,184.923599 
	C533.322937,184.975906 534.753723,183.616165 534.640808,180.185532 
	C534.416504,173.370789 534.953003,166.549652 534.120056,159.726990 
	C533.825684,157.315903 532.184631,153.434387 536.957275,153.305054 
	C541.168335,153.190933 540.206055,156.687042 540.228577,159.186417 
	C540.290161,166.014435 540.395569,172.849091 540.160767,179.670013 
	C540.028076,183.525391 541.308960,185.089600 545.286011,184.940292 
	C552.272705,184.678009 559.273438,184.806351 566.267517,184.714859 
	C568.560547,184.684875 570.801086,184.547867 570.584595,187.871521 
	C570.371094,191.148926 568.129211,190.657410 565.872009,190.594696 
	C558.716553,190.395828 551.555115,190.417160 544.399170,190.230499 
	C541.452026,190.153610 540.198181,191.279358 540.207336,194.309799 
	C540.277344,217.460358 540.097595,240.612915 540.347107,263.761078 
	C540.451721,273.461182 546.930908,279.895660 556.611877,280.769531 
	C561.759705,281.234192 566.933228,281.398193 571.824890,279.128204 
	C573.328674,278.430359 574.749573,278.390900 575.625366,280.165741 
	C576.455872,281.848969 575.779785,282.940247 574.342529,283.922791 
	C561.939453,292.401520 538.767395,283.811646 535.280090,269.340515 
	C534.743103,267.111786 534.692993,264.727722 534.687378,262.414825 
	C534.634338,240.429855 534.533691,218.443878 534.713440,196.460373 
	C534.751404,191.809479 533.550293,189.691437 528.566406,190.175583 
	C524.105225,190.608932 519.565796,190.216232 515.098633,190.612991 
	C510.783264,190.996246 510.091339,189.143661 511.606628,185.318878 
z"/>
<path fill="#000000" opacity="1.000000" stroke="none" 
	d="
M275.998291,236.000000 
	C275.972565,220.334305 275.949707,205.168625 275.917877,190.002930 
	C275.912964,187.658447 275.482971,185.026123 279.085754,185.051651 
	C282.641602,185.076859 282.253021,187.661438 282.249908,190.031052 
	C282.203827,225.028931 282.155701,260.026825 282.153595,295.024719 
	C282.153229,301.590790 281.299530,307.956573 278.692291,314.040863 
	C273.388306,326.418121 262.405548,330.571106 250.252838,329.934967 
	C247.155228,329.772858 243.929932,329.578644 240.940643,328.314026 
	C239.178802,327.568756 237.308731,326.913574 237.985779,324.491669 
	C238.735245,321.810791 240.697403,322.689911 242.450592,323.264954 
	C248.279892,325.176941 254.269302,325.765503 260.150360,324.058380 
	C270.027466,321.191284 275.829651,312.421326 275.936035,299.995972 
	C276.117218,278.832031 275.993713,257.665466 275.998291,236.000000 
z"/>
<path fill="#000000" opacity="1.000000" stroke="none" 
	d="
M911.337524,255.000092 
	C911.335571,269.986847 911.399597,284.474030 911.315857,298.960297 
	C911.184265,321.738922 894.653931,334.496674 872.515198,328.978210 
	C871.388306,328.697357 870.273804,328.320007 869.203674,327.868713 
	C867.627197,327.203796 866.855286,326.070770 867.454346,324.293427 
	C868.105347,322.361389 869.552551,322.437958 871.113708,322.836792 
	C873.526062,323.453125 875.898376,324.393280 878.347351,324.672577 
	C894.845032,326.554291 905.590027,316.873413 905.671570,299.528656 
	C905.843018,263.062958 905.702332,226.595871 905.721191,190.129364 
	C905.722046,188.544464 904.945679,186.676773 906.602783,185.477036 
	C907.746277,184.649170 909.163147,184.757431 910.438660,185.287399 
	C912.176086,186.009384 912.138306,187.571518 912.030701,189.104950 
	C910.502991,210.889694 911.742554,232.703613 911.337524,255.000092 
z"/>
<path fill="#000000" opacity="1.000000" stroke="none" 
	d="
M602.145386,191.167816 
	C602.127197,220.469666 602.130249,249.295364 602.130615,278.121063 
	C602.130615,279.617920 602.235535,281.129669 602.062866,282.607727 
	C601.866699,284.287781 600.458557,284.606720 599.078674,284.623505 
	C597.708008,284.640106 596.318176,284.382507 595.979553,282.737854 
	C595.780823,281.772949 595.822754,280.750519 595.822388,279.753937 
	C595.810974,249.760269 595.803040,219.766586 595.815186,189.772919 
	C595.815857,188.009338 595.299194,185.885284 597.714966,185.183411 
	C599.194153,184.753693 600.995300,184.738373 601.696716,186.299606 
	C602.270203,187.576233 602.039856,189.213989 602.145386,191.167816 
z"/>
<path fill="#000000" opacity="1.000000" stroke="none" 
	d="
M868.815186,284.994904 
	C865.354248,286.976898 862.442505,286.811218 860.018982,284.017365 
	C858.211304,281.933533 858.004211,279.511536 859.290405,277.088684 
	C860.685303,274.460968 863.005920,273.388947 865.914856,273.777222 
	C871.126953,274.472900 872.657471,279.738617 868.815186,284.994904 
z"/>
<path fill="#000000" opacity="1.000000" stroke="none" 
	d="
M912.880371,149.184128 
	C914.737183,152.523193 914.075806,155.065262 911.135620,156.680801 
	C908.858459,157.931961 906.525085,157.437836 904.895386,155.333069 
	C903.148499,153.076950 903.192566,150.611832 905.197205,148.553314 
	C907.685608,145.998077 910.248840,146.694016 912.880371,149.184128 
z"/>
<path fill="#000000" opacity="1.000000" stroke="none" 
	d="
M602.080322,156.301071 
	C598.997620,157.795258 596.588257,157.509262 594.833313,154.859772 
	C593.500183,152.847015 593.571716,150.739075 595.164856,148.929581 
	C597.033813,146.806702 599.437622,146.234451 601.763245,147.998276 
	C604.827942,150.322617 604.944458,153.154663 602.080322,156.301071 
z"/>
<path fill="#000000" opacity="1.000000" stroke="none" 
	d="
M274.643890,154.311447 
	C273.394226,150.646744 274.807190,148.440109 277.802612,147.339600 
	C280.295898,146.423584 282.395752,147.572418 283.579620,149.819855 
	C284.890717,152.308868 284.382538,154.783127 282.002502,156.307205 
	C279.244751,158.073151 276.683655,157.487686 274.643890,154.311447 
z"/>
</svg>