<svg version="1.1" id="Layer_1" xmlns="http://www.w3.org/2000/svg" xmlns:xlink="http://www.w3.org/1999/xlink" x="0px" y="0px"
	 width="100%" viewBox="0 0 318 230" enable-background="new 0 0 318 230" xml:space="preserve">
<path fill="#000000" opacity="1.000000" stroke="none" 
	d="
M1.000000,91.000000 
	C1.000000,61.025253 1.000000,31.050508 1.000000,1.037881 
	C106.885506,1.037881 212.771027,1.037881 319.000000,1.037881 
	C319.000000,38.020187 319.000000,75.041435 318.653198,112.520798 
	C316.664795,111.613159 314.911743,110.360123 313.398804,108.864250 
	C297.947479,93.587364 282.535187,78.271019 267.022400,62.632072 
	C266.390656,61.474640 265.970581,60.529202 265.288483,59.844887 
	C250.008270,44.514526 234.710541,29.201540 219.367020,13.934614 
	C218.467529,13.039609 217.154526,12.560219 215.794205,11.681231 
	C214.364410,11.702522 213.174347,11.929999 211.700546,12.159613 
	C210.925049,12.410993 210.433304,12.660235 209.665771,12.975217 
	C208.914124,13.324039 208.438278,13.607121 207.698120,14.057989 
	C206.584625,15.137602 205.735413,16.049429 204.614563,17.152700 
	C193.863022,27.875435 183.383118,38.406723 172.625977,49.117432 
	C152.317352,69.280693 132.276047,89.254608 112.283546,109.277290 
	C111.270187,110.292183 110.677734,111.727348 109.664360,113.267403 
	C108.171837,117.639473 110.021843,120.565102 112.786140,123.324776 
	C144.136261,154.622345 175.440994,185.965378 206.786758,217.267319 
	C211.786636,222.260239 214.292160,222.201096 219.268875,217.226013 
	C250.715637,185.789520 282.150757,154.341339 313.606903,122.914253 
	C315.325623,121.197113 317.198730,119.634521 319.000000,118.000000 
	C319.000000,155.635025 319.000000,193.270035 319.000000,230.952530 
	C213.120728,230.952530 107.241425,230.952530 1.000000,230.952530 
	C1.000000,201.313416 1.000000,171.625366 1.325799,141.156403 
	C2.068112,140.873810 2.652048,141.306747 2.876069,141.880264 
	C6.348810,150.770752 9.032259,160.060104 13.361692,168.507126 
	C23.302063,187.901489 38.840694,202.067734 58.088097,211.920990 
	C75.540581,220.855377 94.112389,224.552811 113.911339,223.183090 
	C127.878647,222.216812 140.834244,218.484161 153.401840,212.825836 
	C156.646317,211.365051 158.149460,208.687057 156.894333,204.652100 
	C152.984177,200.164795 149.013077,196.025681 144.906815,191.584106 
	C121.917336,168.422897 99.061966,145.565155 76.209389,122.704613 
	C70.536621,117.029861 70.540741,114.960892 76.242523,109.258560 
	C102.280731,83.217819 128.326813,57.184956 154.357635,31.136837 
	C158.795837,26.695690 158.227386,21.844261 152.706772,18.983641 
	C142.174042,13.525889 130.810837,9.900743 119.127762,9.281372 
	C107.504730,8.665182 95.570511,9.227115 84.108894,11.212735 
	C58.488152,15.651291 38.160416,29.624369 22.152390,49.739975 
	C12.817561,61.470078 6.537223,74.925781 2.907848,89.553116 
	C2.758239,90.156082 1.657576,90.523071 1.000000,91.000000 
z"/>
<path fill="#2A004E" opacity="1.000000" stroke="none" 
	d="
M319.000000,117.583336 
	C317.198730,119.634521 315.325623,121.197113 313.606903,122.914253 
	C282.150757,154.341339 250.715637,185.789520 219.268875,217.226013 
	C214.292160,222.201096 211.786636,222.260239 206.786758,217.267319 
	C175.440994,185.965378 144.136261,154.622345 112.786140,123.324776 
	C110.021843,120.565102 108.171837,117.639473 110.002396,113.181755 
	C111.662498,112.073059 112.921257,111.512756 113.832970,110.604195 
	C133.021774,91.481743 152.190796,72.339249 171.272064,53.109737 
	C172.237076,52.137218 172.378372,50.347328 172.903214,48.938011 
	C183.383118,38.406723 193.863022,27.875435 204.961105,17.099764 
	C206.373657,15.866987 207.168045,14.878594 207.962418,13.890203 
	C208.438278,13.607121 208.914124,13.324039 209.861237,13.080288 
	C210.883087,12.798905 211.433685,12.478190 211.984299,12.157475 
	C213.174347,11.929999 214.364410,11.702522 215.879623,12.019454 
	C216.929398,13.663832 217.492188,14.924849 218.402756,15.839729 
	C233.215363,30.722486 248.054382,45.579189 262.953979,60.374760 
	C264.083649,61.496536 265.714233,62.113880 267.111969,62.965706 
	C282.535187,78.271019 297.947479,93.587364 313.398804,108.864250 
	C314.911743,110.360123 316.664795,111.613159 318.653198,112.989456 
	C319.000000,114.388893 319.000000,115.777779 319.000000,117.583336 
z"/>
<path fill="#F14A00" opacity="1.000000" stroke="none" 
	d="
M156.833374,205.000290 
	C158.149460,208.687057 156.646317,211.365051 153.401840,212.825836 
	C140.834244,218.484161 127.878647,222.216812 113.911339,223.183090 
	C94.112389,224.552811 75.540581,220.855377 58.088097,211.920990 
	C38.840694,202.067734 23.302063,187.901489 13.361692,168.507126 
	C9.032259,160.060104 6.348810,150.770752 2.876069,141.880264 
	C2.652048,141.306747 2.068112,140.873810 1.325799,140.687744 
	C1.000000,124.645775 1.000000,108.291542 1.000000,91.468658 
	C1.657576,90.523071 2.758239,90.156082 2.907848,89.553116 
	C6.537223,74.925781 12.817561,61.470078 22.152390,49.739975 
	C38.160416,29.624369 58.488152,15.651291 84.108894,11.212735 
	C95.570511,9.227115 107.504730,8.665182 119.127762,9.281372 
	C130.810837,9.900743 142.174042,13.525889 152.706772,18.983641 
	C158.227386,21.844261 158.795837,26.695690 154.357635,31.136837 
	C128.326813,57.184956 102.280731,83.217819 76.242523,109.258560 
	C70.540741,114.960892 70.536621,117.029861 76.209389,122.704613 
	C99.061966,145.565155 121.917336,168.422897 144.938751,191.946991 
	C149.015015,196.741623 152.924194,200.870956 156.833374,205.000290 
z"/>
<path fill="#2B004E" opacity="1.000000" stroke="none" 
	d="
M172.625977,49.117432 
	C172.378372,50.347328 172.237076,52.137218 171.272064,53.109737 
	C152.190796,72.339249 133.021774,91.481743 113.832970,110.604195 
	C112.921257,111.512756 111.662498,112.073059 110.227325,112.881187 
	C110.677734,111.727348 111.270187,110.292183 112.283546,109.277290 
	C132.276047,89.254608 152.317352,69.280693 172.625977,49.117432 
z"/>
<path fill="#2B004E" opacity="1.000000" stroke="none" 
	d="
M267.022400,62.632080 
	C265.714233,62.113880 264.083649,61.496536 262.953979,60.374760 
	C248.054382,45.579189 233.215363,30.722486 218.402756,15.839729 
	C217.492188,14.924849 216.929398,13.663832 216.119370,12.225638 
	C217.154526,12.560219 218.467529,13.039609 219.367020,13.934614 
	C234.710541,29.201540 250.008270,44.514526 265.288483,59.844887 
	C265.970581,60.529202 266.390656,61.474640 267.022400,62.632080 
z"/>
<path fill="#F14B00" opacity="1.000000" stroke="none" 
	d="
M156.894333,204.652100 
	C152.924194,200.870956 149.015015,196.741623 145.073898,192.249420 
	C149.013077,196.025681 152.984177,200.164795 156.894333,204.652100 
z"/>
<path fill="#2B004E" opacity="1.000000" stroke="none" 
	d="
M207.698120,14.057989 
	C207.168045,14.878594 206.373657,15.866987 205.232758,16.908318 
	C205.735413,16.049429 206.584625,15.137602 207.698120,14.057989 
z"/>
<path fill="#2B004E" opacity="1.000000" stroke="none" 
	d="
M211.700546,12.159613 
	C211.433685,12.478190 210.883087,12.798905 210.137024,13.014549 
	C210.433304,12.660235 210.925049,12.410993 211.700546,12.159613 
z"/>
</svg>